<svg version="1.1" xmlns="http://www.w3.org/2000/svg" viewBox="0 0 588.5 190.28215278983112" width="1765.5" height="570.8464583694933">
  <!-- svg-source:excalidraw -->
  
  <defs>
    <style>
      @font-face {
        font-family: "Virgil";
        src: url("https://excalidraw.com/Virgil.woff2");
      }
      @font-face {
        font-family: "Cascadia";
        src: url("https://excalidraw.com/Cascadia.woff2");
      }
    </style>
  </defs>
  <rect x="0" y="0" width="588.5" height="190.28215278983112" fill="#ffffff"></rect><g stroke-linecap="round" transform="translate(10 91.28215278983112) rotate(0 45.5 44.5)"><path d="M1.72 0.27 C19.85 -0.52, 38.75 -1.14, 91.08 -1.93 M-0.08 -0.02 C23.52 1.35, 47.61 0.58, 91.09 0.18 M91.42 1.82 C91.01 32.76, 88.79 65.03, 91.79 88.87 M90.32 0.9 C90.01 29.89, 90.81 60.87, 90.18 89.55 M89.19 89.32 C69.62 88.68, 47.54 88.6, -0.96 90.2 M91.24 88.72 C59.7 89.08, 29.15 89.37, 0.81 88.61 M-0.67 89.35 C1.23 71.29, 0.12 53.35, -0.94 -0.53 M0.25 89.28 C0.31 55.72, 0.39 24.29, 0.69 0.65" stroke="#000000" stroke-width="1" fill="none"></path></g><g transform="translate(18.5 110.78215278983112) rotate(0 37 25)"><text x="37" y="18" font-family="Virgil, Segoe UI Emoji" font-size="20px" fill="#000000" text-anchor="middle" style="white-space: pre;" direction="ltr">user </text><text x="37" y="43" font-family="Virgil, Segoe UI Emoji" font-size="20px" fill="#000000" text-anchor="middle" style="white-space: pre;" direction="ltr">program</text></g><g stroke-linecap="round" transform="translate(262.5 90.78215278983112) rotate(0 45.5 44.5)"><path d="M0.57 0.63 C25.13 -1.73, 47.93 0.59, 90.83 -0.27 M-0.45 0.31 C30.57 0.48, 59.87 -0.2, 91.96 0.19 M89.57 -1.63 C91.92 22.72, 90.44 47.41, 91.68 87.05 M91.29 -0.16 C90.03 31.62, 90.21 61.62, 90.3 88.03 M90.02 87.98 C65.17 89.98, 41.14 88.26, -0.47 87.01 M90.83 88.11 C63.57 88.48, 35.6 89.1, -0.02 88.59 M0.69 88.19 C-0.08 58.18, -1 29.66, -1.03 -0.24 M0.13 88.59 C-0.58 63.71, 0.21 37.83, 0.95 -0.25" stroke="#000000" stroke-width="1" fill="none"></path></g><g stroke-linecap="round"><g transform="translate(102 137.9523204891879) rotate(0 77.50587599024647 0.6803519595399905)"><path d="M-0.77 -0.59 C24.83 -0.42, 127.44 -0.34, 153.39 -0.07 M1.03 1.72 C27.04 2.18, 130.17 1.88, 155.78 1.47" stroke="#000000" stroke-width="1" fill="none"></path></g><g transform="translate(102 137.9523204891879) rotate(0 77.50587599024647 0.6803519595399905)"><path d="M126.69 10.94 C135.79 10.73, 145.6 6.03, 155.31 -0.52 M127.5 11.07 C136.05 8.41, 143.96 5.86, 155.77 1.06" stroke="#000000" stroke-width="1" fill="none"></path></g><g transform="translate(102 137.9523204891879) rotate(0 77.50587599024647 0.6803519595399905)"><path d="M126.53 -9.58 C135.49 -3.96, 145.35 -2.83, 155.31 -0.52 M127.33 -9.45 C136.09 -5.93, 144.05 -2.29, 155.77 1.06" stroke="#000000" stroke-width="1" fill="none"></path></g></g><g stroke-linecap="round"><g transform="translate(177.6261784285307 9.141076394915558) rotate(0 0.6520115450024946 37.64928881376986)"><path d="M-0.37 0.86 C-0.02 13.19, 1.49 62.12, 1.68 74.44" stroke="#000000" stroke-width="1.5" fill="none" stroke-dasharray="8 9"></path></g></g><g transform="translate(334 38.282152789831116) rotate(0 60 12.5)"><text x="0" y="18" font-family="Virgil, Segoe UI Emoji" font-size="20px" fill="#000000" text-anchor="start" style="white-space: pre;" direction="ltr">kernel space</text></g><g transform="translate(27 34.282152789831116) rotate(0 53.5 12.5)"><text x="0" y="18" font-family="Virgil, Segoe UI Emoji" font-size="20px" fill="#000000" text-anchor="start" style="white-space: pre;" direction="ltr">user space</text></g><g transform="translate(126 111.28215278983112) rotate(0 62 25)"><text x="0" y="18" font-family="Virgil, Segoe UI Emoji" font-size="20px" fill="#000000" text-anchor="start" style="white-space: pre;" direction="ltr">NUMA hinting</text><text x="0" y="43" font-family="Virgil, Segoe UI Emoji" font-size="20px" fill="#000000" text-anchor="start" style="white-space: pre;" direction="ltr">page fault</text></g><g transform="translate(258.5 110.28215278983112) rotate(0 49.5 25)"><text x="49.5" y="18" font-family="Virgil, Segoe UI Emoji" font-size="20px" fill="#000000" text-anchor="middle" style="white-space: pre;" direction="ltr">collect </text><text x="49.5" y="43" font-family="Virgil, Segoe UI Emoji" font-size="20px" fill="#000000" text-anchor="middle" style="white-space: pre;" direction="ltr">statistics</text></g><g stroke-linecap="round" transform="translate(487.5 88.78215278983112) rotate(0 45.5 44.5)"><path d="M0.27 -1.78 C23.84 -0.65, 51.55 0.02, 90.42 1.24 M0.56 0.78 C23.26 0.4, 47.81 0.28, 90.02 -0.74 M89.35 1.36 C90.49 33.56, 90.49 70.05, 92.98 88.34 M91.82 0.8 C91.25 21.13, 90.86 40.45, 90.77 88.85 M92.75 89.88 C56.49 89.48, 22.83 90.86, -0.77 88.53 M91.26 89.73 C58.24 89.24, 26.7 89.4, 0.26 89.57 M-1.34 88.48 C-0.79 65.94, -0.49 40.73, -0.75 1.32 M-0.5 89.34 C0.62 59.64, -0.41 27.92, -0.72 0.65" stroke="#000000" stroke-width="1" fill="none"></path></g><g stroke-linecap="round"><g transform="translate(363 136.28215278983112) rotate(0 54.89237386882303 0.3272663345826743)"><path d="M-0.6 0.41 C17.86 0.57, 92.1 1.3, 110.39 1.15 M1.28 -0.42 C19.66 -0.58, 91.26 -0.53, 109.64 -0.37" stroke="#000000" stroke-width="1" fill="none"></path></g><g transform="translate(363 136.28215278983112) rotate(0 54.89237386882303 0.3272663345826743)"><path d="M82.09 10.43 C90.85 5.8, 95.6 3.07, 110.95 -1.09 M81.18 9.05 C91.53 6.6, 103.53 2.3, 109.86 -0.21" stroke="#000000" stroke-width="1" fill="none"></path></g><g transform="translate(363 136.28215278983112) rotate(0 54.89237386882303 0.3272663345826743)"><path d="M82.17 -10.1 C90.93 -9.25, 95.66 -6.5, 110.95 -1.09 M81.26 -11.47 C91.78 -6.04, 103.74 -2.47, 109.86 -0.21" stroke="#000000" stroke-width="1" fill="none"></path></g></g><g transform="translate(488.5 109.28215278983112) rotate(0 44.5 25)"><text x="44.5" y="18" font-family="Virgil, Segoe UI Emoji" font-size="20px" fill="#000000" text-anchor="middle" style="white-space: pre;" direction="ltr">scheduler</text><text x="44.5" y="43" font-family="Virgil, Segoe UI Emoji" font-size="20px" fill="#000000" text-anchor="middle" style="white-space: pre;" direction="ltr">decision</text></g></svg>